# xmcd
#
# Track frame offsets:
# 150
# 14472
# 35464
# 53960
# 69244
#
# Disc length: 1200 seconds
#
# Revision: 0
# Processed by: cddbd v1.5.1PL2 Copyright (c) Steve Scherf et al.
# Submitted via: Audion 3.0.2 (http://www.panic.com/audion/)
#
DISCID=3a04ae05
DTITLE=Drew Gasparini - Small Thoughts
DYEAR=1900
DGENRE=
TTITLE0=I'm Not That Special
TTITLE1=If You Walked Away
TTITLE2=Come Talk to Me
TTITLE3=Waste
TTITLE4=Paul
EXTD=
EXTT0=
EXTT1=
EXTT2=
EXTT3=
EXTT4=
PLAYORDER=
